<svg width="18" height="14" viewBox="0 0 18 14" fill="none" xmlns="http://www.w3.org/2000/svg">
<path d="M0.5 1.27273C0.223858 1.27273 0 0.987818 0 0.636364C0 0.28491 0.223858 0 0.5 0H17.5C17.7761 0 18 0.28491 18 0.636364C18 0.987818 17.7761 1.27273 17.5 1.27273H0.5ZM0.5 7.63636C0.223858 7.63636 0 7.35145 0 7C0 6.64855 0.223858 6.36364 0.5 6.36364H17.5C17.7761 6.36364 18 6.64855 18 7C18 7.35145 17.7761 7.63636 17.5 7.63636H0.5ZM0.5 14C0.223858 14 0 13.7151 0 13.3636C0 13.0122 0.223858 12.7273 0.5 12.7273H17.5C17.7761 12.7273 18 13.0122 18 13.3636C18 13.7151 17.7761 14 17.5 14H0.5Z" fill="#2A4771"/>
</svg>
