<svg width="138" height="48" viewBox="0 0 138 48" fill="none" xmlns="http://www.w3.org/2000/svg">
<path d="M14.21 31.274C14.7233 31.2594 15.09 31.142 15.31 30.922C15.53 30.702 15.6546 30.4454 15.684 30.152C15.7133 29.844 15.728 29.316 15.728 28.568V19.064C15.728 18.448 15.75 17.92 15.794 17.48L14.21 17.568V16.6H24.792L24.902 20.45H24.176C24.176 19.2474 23.912 18.426 23.384 17.986C22.8706 17.546 22.1446 17.3407 21.206 17.37L19.314 17.414C18.786 17.4287 18.4046 17.5314 18.17 17.722C17.9353 17.898 17.7886 18.1547 17.73 18.492C17.6713 18.8147 17.642 19.328 17.642 20.032V23.552L21.778 23.574L21.624 21.682H22.592V26.302H21.866C21.866 25.7594 21.8 25.3487 21.668 25.07C21.536 24.7767 21.3306 24.586 21.052 24.498C20.788 24.3954 20.414 24.344 19.93 24.344L19.248 24.366L17.642 24.432V29.47C17.642 30.2327 17.62 30.8047 17.576 31.186L21.778 31.12C22.8046 31.1054 23.5893 30.8487 24.132 30.35C24.6746 29.8367 24.946 28.9567 24.946 27.71H25.694L25.562 32H14.21V31.274Z" fill="white"/>
<path d="M28.7755 31.274C29.2888 31.2594 29.6555 31.142 29.8755 30.922C30.0955 30.702 30.2202 30.4454 30.2495 30.152C30.2788 29.844 30.2935 29.316 30.2935 28.568V19.064C30.2935 18.448 30.3155 17.92 30.3595 17.48L28.7755 17.568V16.6C30.8288 16.5707 32.4642 16.556 33.6815 16.556C35.8668 16.556 37.5168 16.9374 38.6315 17.7C39.7608 18.4627 40.3255 19.5847 40.3255 21.066C40.3255 21.9167 40.0982 22.7307 39.6435 23.508C39.2035 24.2854 38.4335 24.9307 37.3335 25.444C36.2482 25.9574 34.8035 26.214 32.9995 26.214C32.6622 26.214 32.3982 26.2067 32.2075 26.192V29.382C32.2075 30.1594 32.1855 30.7387 32.1415 31.12L34.1655 31.01V32H28.7755V31.274ZM33.6375 25.356C34.4735 25.356 35.2362 25.1947 35.9255 24.872C36.6295 24.5347 37.1795 24.058 37.5755 23.442C37.9862 22.8114 38.1915 22.078 38.1915 21.242C38.1915 19.922 37.7882 18.954 36.9815 18.338C36.1748 17.722 35.0602 17.414 33.6375 17.414C33.1388 17.414 32.7868 17.5167 32.5815 17.722C32.3908 17.9274 32.2808 18.1767 32.2515 18.47C32.2222 18.7487 32.2075 19.2694 32.2075 20.032V25.29C32.5742 25.334 33.0508 25.356 33.6375 25.356Z" fill="white"/>
<path d="M42.8899 31.274C43.4032 31.2594 43.7699 31.142 43.9899 30.922C44.2099 30.702 44.3346 30.4454 44.3639 30.152C44.3932 29.844 44.4079 29.316 44.4079 28.568V19.064C44.4079 18.448 44.4299 17.92 44.4739 17.48L42.8899 17.568V16.6H47.8399V17.326C47.3266 17.3407 46.9599 17.458 46.7399 17.678C46.5199 17.898 46.3952 18.162 46.3659 18.47C46.3365 18.7634 46.3219 19.284 46.3219 20.032V29.382C46.3219 30.1594 46.2999 30.7387 46.2559 31.12L47.8399 31.032V32H42.8899V31.274Z" fill="white"/>
<path d="M65.1023 32.352C63.6357 32.352 62.3377 32.044 61.2083 31.428C60.079 30.7974 59.199 29.9027 58.5683 28.744C57.9377 27.5854 57.6223 26.214 57.6223 24.63C57.6223 23.1927 57.9083 21.836 58.4803 20.56C59.067 19.284 59.9397 18.25 61.0983 17.458C62.257 16.6514 63.6503 16.248 65.2783 16.248C66.0703 16.248 66.8697 16.358 67.6763 16.578C68.4977 16.7834 69.2163 17.0767 69.8323 17.458L69.7443 16.402H70.9543V21.44H70.1623C70.0597 20.0907 69.5683 19.0347 68.6883 18.272C67.823 17.5094 66.7377 17.128 65.4323 17.128C64.391 17.128 63.4377 17.4287 62.5723 18.03C61.7217 18.6314 61.0397 19.4674 60.5263 20.538C60.0277 21.594 59.7783 22.7894 59.7783 24.124C59.7783 25.5027 60.0277 26.7347 60.5263 27.82C61.025 28.9054 61.7217 29.756 62.6163 30.372C63.511 30.988 64.5303 31.296 65.6743 31.296C66.305 31.296 66.9503 31.208 67.6103 31.032C68.285 30.8414 68.8937 30.5627 69.4363 30.196V25.378L67.8963 25.466V24.498H72.8683V25.224C72.1643 25.224 71.7243 25.4954 71.5483 26.038C71.3723 26.566 71.2843 27.1674 71.2843 27.842V31.208H70.6903C70.0743 31.208 69.2823 31.3987 68.3143 31.78C67.8743 31.956 67.3537 32.0954 66.7523 32.198C66.151 32.3007 65.601 32.352 65.1023 32.352Z" fill="white"/>
<path d="M75.4146 31.274C75.928 31.2594 76.2947 31.142 76.5147 30.922C76.7347 30.702 76.8593 30.4454 76.8887 30.152C76.918 29.844 76.9327 29.316 76.9327 28.568V19.064C76.9327 18.448 76.9547 17.92 76.9986 17.48L75.4146 17.568V16.6C76.94 16.5707 78.0913 16.556 78.8687 16.556C79.5727 16.556 80.1007 16.5634 80.4527 16.578C82.5207 16.6074 84.0313 16.9594 84.9846 17.634C85.9527 18.294 86.4367 19.2547 86.4367 20.516C86.4513 21.528 86.1507 22.4374 85.5347 23.244C84.9187 24.0507 83.848 24.608 82.3227 24.916C82.572 25.1067 82.7993 25.334 83.0047 25.598C83.21 25.862 83.4887 26.2727 83.8407 26.83L85.3367 29.184C85.6593 29.6974 85.9233 30.0934 86.1287 30.372C86.3487 30.636 86.6053 30.856 86.8987 31.032C87.2066 31.1934 87.5807 31.274 88.0207 31.274V32H85.2486C84.8526 31.6627 84.5153 31.318 84.2366 30.966C83.9726 30.5994 83.6573 30.13 83.2906 29.558L81.8167 27.204L81.5306 26.742C81.296 26.346 81.0907 26.0234 80.9146 25.774C80.7386 25.5247 80.548 25.3047 80.3427 25.114C80.2106 25.1287 80.0053 25.136 79.7267 25.136C79.3307 25.136 79.0373 25.1287 78.8466 25.114V29.382C78.8466 30.1594 78.8246 30.7387 78.7806 31.12L80.3647 31.032V32H75.4146V31.274ZM79.8147 24.3C82.8066 24.3 84.3027 23.1194 84.3027 20.758C84.3027 19.6434 83.98 18.8074 83.3346 18.25C82.6893 17.6927 81.6993 17.414 80.3647 17.414C79.8513 17.414 79.4846 17.5167 79.2646 17.722C79.0446 17.9274 78.92 18.1767 78.8906 18.47C78.8613 18.7634 78.8466 19.284 78.8466 20.032V24.256C79.2867 24.2854 79.6093 24.3 79.8147 24.3Z" fill="white"/>
<path d="M97.7431 32.352C95.9831 32.352 94.5164 31.9634 93.3431 31.186C92.1698 30.4087 91.3044 29.4114 90.7471 28.194C90.1898 26.962 89.9111 25.664 89.9111 24.3C89.9111 22.9947 90.1971 21.726 90.7691 20.494C91.3558 19.262 92.2211 18.25 93.3651 17.458C94.5238 16.6514 95.9244 16.248 97.5671 16.248C99.2538 16.248 100.684 16.6514 101.857 17.458C103.045 18.25 103.932 19.262 104.519 20.494C105.106 21.726 105.399 22.9947 105.399 24.3C105.399 25.5907 105.106 26.8594 104.519 28.106C103.947 29.338 103.082 30.3574 101.923 31.164C100.779 31.956 99.3858 32.352 97.7431 32.352ZM97.7871 31.45C98.9311 31.45 99.9064 31.1274 100.713 30.482C101.534 29.822 102.15 28.9787 102.561 27.952C102.986 26.9254 103.199 25.8474 103.199 24.718C103.199 23.4714 102.972 22.2687 102.517 21.11C102.062 19.9367 101.402 18.9834 100.537 18.25C99.6718 17.502 98.6598 17.128 97.5011 17.128C96.3571 17.128 95.3744 17.458 94.5531 18.118C93.7318 18.7634 93.1084 19.6067 92.6831 20.648C92.2724 21.6894 92.0671 22.7747 92.0671 23.904C92.0671 25.0627 92.2798 26.2287 92.7051 27.402C93.1304 28.5607 93.7758 29.5287 94.6411 30.306C95.5064 31.0687 96.5551 31.45 97.7871 31.45Z" fill="white"/>
<path d="M115.52 32.352C113.966 32.352 112.734 32.0807 111.824 31.538C110.93 30.9807 110.284 30.1374 109.888 29.008C109.507 27.864 109.316 26.3607 109.316 24.498V20.032C109.316 19.0934 109.346 18.2427 109.404 17.48L107.82 17.546V16.6H112.748V17.326C112.103 17.326 111.692 17.4947 111.516 17.832C111.34 18.1694 111.252 18.58 111.252 19.064V24.608C111.252 25.884 111.362 26.9914 111.582 27.93C111.817 28.854 112.264 29.6167 112.924 30.218C113.599 30.8047 114.56 31.098 115.806 31.098C117.332 31.098 118.461 30.5774 119.194 29.536C119.942 28.48 120.331 27.05 120.36 25.246L120.426 19.064C120.426 18.448 120.448 17.92 120.492 17.48L118.93 17.568V16.6H123.022V17.326C122.494 17.3407 122.12 17.458 121.9 17.678C121.68 17.898 121.556 18.162 121.526 18.47C121.497 18.7634 121.482 19.284 121.482 20.032L121.438 25.136C121.424 27.2627 120.947 29.0007 120.008 30.35C119.084 31.6847 117.588 32.352 115.52 32.352Z" fill="white"/>
<path d="M125.771 31.274C126.285 31.2594 126.651 31.142 126.871 30.922C127.091 30.702 127.216 30.4454 127.245 30.152C127.275 29.844 127.289 29.316 127.289 28.568V19.064C127.289 18.448 127.311 17.92 127.355 17.48L125.771 17.568V16.6C127.825 16.5707 129.46 16.556 130.677 16.556C132.863 16.556 134.513 16.9374 135.627 17.7C136.757 18.4627 137.321 19.5847 137.321 21.066C137.321 21.9167 137.094 22.7307 136.639 23.508C136.199 24.2854 135.429 24.9307 134.329 25.444C133.244 25.9574 131.799 26.214 129.995 26.214C129.658 26.214 129.394 26.2067 129.203 26.192V29.382C129.203 30.1594 129.181 30.7387 129.137 31.12L131.161 31.01V32H125.771V31.274ZM130.633 25.356C131.469 25.356 132.232 25.1947 132.921 24.872C133.625 24.5347 134.175 24.058 134.571 23.442C134.982 22.8114 135.187 22.078 135.187 21.242C135.187 19.922 134.784 18.954 133.977 18.338C133.171 17.722 132.056 17.414 130.633 17.414C130.135 17.414 129.783 17.5167 129.577 17.722C129.387 17.9274 129.277 18.1767 129.247 18.47C129.218 18.7487 129.203 19.2694 129.203 20.032V25.29C129.57 25.334 130.047 25.356 130.633 25.356Z" fill="white"/>
<path d="M46 1L1 1V47H46" stroke="#F06C45"/>
</svg>
