<svg width="188" height="33" viewBox="0 0 188 33" fill="none" xmlns="http://www.w3.org/2000/svg">
<path d="M43.1438 24.4489C43.7478 24.432 44.1792 24.2961 44.4381 24.0413C44.6969 23.7866 44.8436 23.4894 44.8781 23.1497C44.9127 22.7931 44.9299 22.1816 44.9299 21.3155V10.3102C44.9299 9.59685 44.9558 8.98544 45.0076 8.47593L43.1438 8.57783V7.45692H55.5948L55.7243 11.9151H54.87C54.87 10.5224 54.5594 9.57137 53.9382 9.06187C53.3342 8.55236 52.4799 8.31459 51.3755 8.34856L49.1493 8.39951C48.528 8.41649 48.0793 8.53537 47.8032 8.75616C47.5271 8.95996 47.3545 9.25718 47.2855 9.6478C47.2165 10.0214 47.182 10.6159 47.182 11.4311V15.5071L52.0485 15.5326L51.8673 13.3417H53.0063V18.6915H52.152C52.152 18.0631 52.0744 17.5876 51.9191 17.2649C51.7638 16.9252 51.5222 16.7045 51.1943 16.6026C50.8836 16.4837 50.4436 16.4242 49.8741 16.4242L49.0716 16.4497L47.182 16.5261V22.36C47.182 23.2431 47.1561 23.9055 47.1043 24.347L52.0485 24.2706C53.2565 24.2536 54.1798 23.9564 54.8183 23.379C55.4568 22.7846 55.776 21.7655 55.776 20.3219H56.6562L56.5008 25.2896H43.1438V24.4489Z" fill="#2A4771"/>
<path d="M60.282 24.4489C60.886 24.432 61.3174 24.2961 61.5763 24.0413C61.8351 23.7866 61.9818 23.4894 62.0163 23.1497C62.0508 22.7931 62.0681 22.1816 62.0681 21.3155V10.3102C62.0681 9.59685 62.094 8.98544 62.1458 8.47593L60.282 8.57783V7.45692C62.698 7.42295 64.6222 7.40597 66.0545 7.40597C68.6258 7.40597 70.5673 7.84754 71.8788 8.73069C73.2076 9.61383 73.872 10.9131 73.872 12.6284C73.872 13.6135 73.6045 14.556 73.0696 15.4562C72.5518 16.3563 71.6458 17.1036 70.3515 17.698C69.0745 18.2924 67.3747 18.5896 65.2521 18.5896C64.8551 18.5896 64.5445 18.5811 64.3202 18.5642V22.2581C64.3202 23.1582 64.2943 23.829 64.2425 24.2706L66.624 24.1432V25.2896H60.282V24.4489ZM66.0027 17.5961C66.9864 17.5961 67.8838 17.4093 68.6949 17.0356C69.5232 16.645 70.1703 16.093 70.6363 15.3797C71.1195 14.6494 71.3611 13.8003 71.3611 12.8322C71.3611 11.3037 70.8865 10.1828 69.9374 9.46947C68.9882 8.75616 67.6767 8.39951 66.0027 8.39951C65.416 8.39951 65.0018 8.51839 64.7602 8.75616C64.5359 8.99393 64.4065 9.28265 64.3719 9.62232C64.3374 9.94501 64.3202 10.5479 64.3202 11.4311V17.5197C64.7516 17.5706 65.3125 17.5961 66.0027 17.5961Z" fill="#2A4771"/>
<path d="M76.8893 24.4489C77.4933 24.432 77.9247 24.2961 78.1836 24.0413C78.4425 23.7866 78.5892 23.4894 78.6237 23.1497C78.6582 22.7931 78.6754 22.1816 78.6754 21.3155V10.3102C78.6754 9.59685 78.7013 8.98544 78.7531 8.47593L76.8893 8.57783V7.45692H82.7136V8.29761C82.1096 8.31459 81.6782 8.45046 81.4193 8.70521C81.1605 8.95996 81.0138 9.26567 80.9793 9.62232C80.9448 9.96199 80.9275 10.5649 80.9275 11.4311V22.2581C80.9275 23.1582 80.9016 23.829 80.8498 24.2706L82.7136 24.1687V25.2896H76.8893V24.4489Z" fill="#2A4771"/>
<path d="M103.025 25.6972C101.299 25.6972 99.7721 25.3406 98.4433 24.6273C97.1144 23.897 96.079 22.861 95.337 21.5193C94.5949 20.1776 94.2239 18.5896 94.2239 16.7554C94.2239 15.091 94.5604 13.52 95.2334 12.0425C95.9237 10.5649 96.9505 9.36757 98.3138 8.45046C99.6771 7.51636 101.317 7.04932 103.232 7.04932C104.164 7.04932 105.105 7.17669 106.054 7.43145C107.02 7.66922 107.866 8.00889 108.59 8.45046L108.487 7.22764H109.911V13.0615H108.979C108.858 11.499 108.28 10.2762 107.244 9.39304C106.226 8.5099 104.949 8.06833 103.413 8.06833C102.188 8.06833 101.066 8.41649 100.048 9.11281C99.0473 9.80914 98.2448 10.7772 97.6408 12.017C97.0541 13.2398 96.7607 14.624 96.7607 16.1695C96.7607 17.7659 97.0541 19.1925 97.6408 20.4493C98.2275 21.7061 99.0473 22.6911 100.1 23.4045C101.153 24.1178 102.352 24.4744 103.698 24.4744C104.44 24.4744 105.199 24.3725 105.976 24.1687C106.77 23.9479 107.486 23.6252 108.125 23.2007V17.6216L106.313 17.7235V16.6026H112.163V17.4432C111.334 17.4432 110.817 17.7574 110.61 18.3858C110.402 18.9972 110.299 19.6936 110.299 20.4748V24.3725H109.6C108.875 24.3725 107.943 24.5933 106.804 25.0349C106.287 25.2387 105.674 25.4 104.966 25.5189C104.259 25.6378 103.612 25.6972 103.025 25.6972Z" fill="#2A4771"/>
<path d="M115.159 24.4489C115.763 24.432 116.194 24.2961 116.453 24.0413C116.712 23.7866 116.859 23.4894 116.893 23.1497C116.928 22.7931 116.945 22.1816 116.945 21.3155V10.3102C116.945 9.59685 116.971 8.98544 117.023 8.47593L115.159 8.57783V7.45692C116.954 7.42295 118.308 7.40597 119.223 7.40597C120.051 7.40597 120.672 7.41446 121.087 7.43145C123.52 7.46541 125.297 7.87302 126.419 8.65426C127.558 9.41852 128.128 10.5309 128.128 11.9915C128.145 13.1634 127.791 14.2164 127.066 15.1505C126.341 16.0846 125.082 16.7299 123.287 17.0866C123.58 17.3074 123.848 17.5706 124.089 17.8763C124.331 18.182 124.659 18.6576 125.073 19.3029L126.833 22.0288C127.213 22.6232 127.524 23.0818 127.765 23.4045C128.024 23.7102 128.326 23.9649 128.671 24.1687C129.034 24.3555 129.474 24.4489 129.991 24.4489V25.2896H126.73C126.264 24.899 125.867 24.4999 125.539 24.0923C125.228 23.6677 124.857 23.1242 124.426 22.4619L122.692 19.736L122.355 19.201C122.079 18.7425 121.837 18.3688 121.63 18.0801C121.423 17.7914 121.199 17.5366 120.957 17.3159C120.802 17.3328 120.56 17.3413 120.232 17.3413C119.766 17.3413 119.421 17.3328 119.197 17.3159V22.2581C119.197 23.1582 119.171 23.829 119.119 24.2706L120.983 24.1687V25.2896H115.159V24.4489ZM120.336 16.3733C123.856 16.3733 125.617 15.0061 125.617 12.2718C125.617 10.981 125.237 10.0129 124.478 9.36757C123.718 8.72219 122.553 8.39951 120.983 8.39951C120.379 8.39951 119.948 8.51839 119.689 8.75616C119.43 8.99393 119.283 9.28265 119.249 9.62232C119.214 9.96199 119.197 10.5649 119.197 11.4311V16.3223C119.715 16.3563 120.094 16.3733 120.336 16.3733Z" fill="#2A4771"/>
<path d="M141.431 25.6972C139.36 25.6972 137.634 25.2472 136.254 24.347C134.873 23.4469 133.855 22.292 133.199 20.8824C132.544 19.4558 132.216 17.9527 132.216 16.3733C132.216 14.8617 132.552 13.3927 133.225 11.966C133.915 10.5394 134.934 9.36757 136.28 8.45046C137.643 7.51636 139.291 7.04932 141.224 7.04932C143.208 7.04932 144.891 7.51636 146.272 8.45046C147.669 9.36757 148.714 10.5394 149.404 11.966C150.094 13.3927 150.439 14.8617 150.439 16.3733C150.439 17.8678 150.094 19.3369 149.404 20.7805C148.731 22.2071 147.713 23.3875 146.349 24.3216C145.003 25.2387 143.364 25.6972 141.431 25.6972ZM141.483 24.6527C142.829 24.6527 143.976 24.2791 144.926 23.5318C145.892 22.7676 146.617 21.791 147.1 20.6022C147.6 19.4133 147.851 18.165 147.851 16.8573C147.851 15.4137 147.583 14.0211 147.048 12.6794C146.513 11.3207 145.737 10.2167 144.718 9.36757C143.7 8.50141 142.51 8.06833 141.146 8.06833C139.8 8.06833 138.644 8.45046 137.678 9.21472C136.711 9.96199 135.978 10.9385 135.477 12.1444C134.994 13.3502 134.752 14.607 134.752 15.9147C134.752 17.2564 135.003 18.6066 135.503 19.9653C136.004 21.307 136.763 22.4279 137.781 23.328C138.799 24.2112 140.033 24.6527 141.483 24.6527Z" fill="#2A4771"/>
<path d="M162.348 25.6972C160.519 25.6972 159.069 25.383 157.999 24.7547C156.947 24.1093 156.187 23.1327 155.722 21.825C155.273 20.5003 155.049 18.7595 155.049 16.6026V11.4311C155.049 10.3441 155.083 9.35908 155.152 8.47593L153.288 8.55236V7.45692H159.087V8.29761C158.327 8.29761 157.844 8.49292 157.637 8.88354C157.43 9.27416 157.326 9.7497 157.326 10.3102V16.7299C157.326 18.2075 157.456 19.4898 157.715 20.5767C157.991 21.6467 158.517 22.5298 159.294 23.2261C160.088 23.9055 161.218 24.2451 162.685 24.2451C164.48 24.2451 165.808 23.6422 166.671 22.4364C167.551 21.2136 168.009 19.5577 168.043 17.4687L168.121 10.3102C168.121 9.59685 168.147 8.98544 168.198 8.47593L166.361 8.57783V7.45692H171.175V8.29761C170.554 8.31459 170.114 8.45046 169.855 8.70521C169.596 8.95996 169.45 9.26567 169.415 9.62232C169.381 9.96199 169.363 10.5649 169.363 11.4311L169.312 17.3413C169.294 19.804 168.733 21.8165 167.629 23.379C166.542 24.9245 164.782 25.6972 162.348 25.6972Z" fill="#2A4771"/>
<path d="M174.41 24.4489C175.014 24.432 175.445 24.2961 175.704 24.0413C175.963 23.7866 176.11 23.4894 176.144 23.1497C176.179 22.7931 176.196 22.1816 176.196 21.3155V10.3102C176.196 9.59685 176.222 8.98544 176.274 8.47593L174.41 8.57783V7.45692C176.826 7.42295 178.75 7.40597 180.182 7.40597C182.754 7.40597 184.695 7.84754 186.007 8.73069C187.335 9.61383 188 10.9131 188 12.6284C188 13.6135 187.732 14.556 187.197 15.4562C186.68 16.3563 185.774 17.1036 184.479 17.698C183.202 18.2924 181.503 18.5896 179.38 18.5896C178.983 18.5896 178.672 18.5811 178.448 18.5642V22.2581C178.448 23.1582 178.422 23.829 178.37 24.2706L180.752 24.1432V25.2896H174.41V24.4489ZM180.131 17.5961C181.114 17.5961 182.012 17.4093 182.823 17.0356C183.651 16.645 184.298 16.093 184.764 15.3797C185.247 14.6494 185.489 13.8003 185.489 12.8322C185.489 11.3037 185.014 10.1828 184.065 9.46947C183.116 8.75616 181.805 8.39951 180.131 8.39951C179.544 8.39951 179.13 8.51839 178.888 8.75616C178.664 8.99393 178.534 9.28265 178.5 9.62232C178.465 9.94501 178.448 10.5479 178.448 11.4311V17.5197C178.879 17.5706 179.44 17.5961 180.131 17.5961Z" fill="#2A4771"/>
<path d="M7.70131 22.869C7.57428 22.9467 7.43289 22.999 7.28527 23.0228C7.13765 23.0467 6.9867 23.0416 6.84108 23.0079C6.69546 22.9741 6.55805 22.9124 6.43672 22.8263C6.31539 22.7402 6.21253 22.6313 6.13406 22.506C4.43869 19.8034 3.87875 16.5574 4.57283 13.4555C4.6503 13.1771 4.83396 12.9387 5.08555 12.7902C5.33715 12.6417 5.63727 12.5944 5.92339 12.6583C6.20951 12.7221 6.45956 12.8922 6.62146 13.133C6.78335 13.3737 6.8446 13.6667 6.79244 13.9509C6.23071 16.4824 6.69277 19.1297 8.08068 21.3317C8.23686 21.5852 8.28462 21.8893 8.21352 22.1774C8.14242 22.4655 7.95825 22.7142 7.70131 22.869ZM16.6951 6.22062C18.2046 6.23574 19.6913 6.58458 21.0454 7.24136C22.3994 7.89813 23.5862 8.84604 24.5178 10.015C24.6105 10.1312 24.7255 10.2283 24.8562 10.3007C24.987 10.3732 25.131 10.4196 25.28 10.4372C25.429 10.4549 25.58 10.4436 25.7245 10.4038C25.8691 10.364 26.0042 10.2966 26.1223 10.2055C26.2403 10.1143 26.339 10.0011 26.4126 9.87243C26.4862 9.74374 26.5333 9.60203 26.5513 9.45541C26.5693 9.30879 26.5577 9.16012 26.5173 9.01789C26.4769 8.87566 26.4084 8.74266 26.3158 8.62648C25.1733 7.19192 23.7175 6.02867 22.0562 5.22289C20.395 4.41711 18.5708 3.98944 16.7188 3.97155C16.5688 3.97001 16.4199 3.99758 16.2807 4.05267C16.1414 4.10777 16.0146 4.18931 15.9074 4.29265C15.8002 4.39598 15.7147 4.51909 15.6558 4.65494C15.597 4.79079 15.5659 4.93671 15.5643 5.08439C15.5627 5.23207 15.5907 5.3786 15.6467 5.51562C15.7027 5.65265 15.7856 5.77748 15.8906 5.88299C15.9956 5.98849 16.1207 6.07262 16.2587 6.13055C16.3967 6.18848 16.545 6.21909 16.6951 6.22062ZM16.6065 27.1884C16.6213 27.3349 16.6653 27.4771 16.736 27.6068C16.8067 27.7366 16.9027 27.8513 17.0186 27.9444C17.1345 28.0375 17.2679 28.1072 17.4112 28.1494C17.5545 28.1917 17.7049 28.2056 17.8537 28.1905C21.0643 27.8675 24.0211 26.3273 26.098 23.8962C26.2781 23.6665 26.3608 23.377 26.3285 23.0885C26.2962 22.8001 26.1515 22.5352 25.9249 22.3496C25.6983 22.164 25.4074 22.072 25.1133 22.0932C24.8192 22.1143 24.5449 22.2468 24.3481 22.4629C22.6548 24.453 20.2395 25.7145 17.6157 25.9792C17.3205 26.0115 17.0498 26.156 16.8613 26.3818C16.6728 26.6077 16.5814 26.8971 16.6065 27.1884ZM25.6378 18.3282C26.0978 18.5514 26.6147 18.6352 27.1232 18.5692C27.6317 18.5032 28.1088 18.2903 28.4943 17.9575C28.8799 17.6246 29.1564 17.1866 29.2891 16.6991C29.4217 16.2115 29.4044 15.6962 29.2394 15.2183C29.0745 14.7403 28.7692 14.3213 28.3622 14.0141C27.9553 13.707 27.4649 13.5254 26.9531 13.4925C26.4413 13.4597 25.9311 13.5769 25.487 13.8293C25.0429 14.0818 24.6849 14.4582 24.4582 14.9109C24.306 15.2112 24.2155 15.538 24.1918 15.8727C24.168 16.2074 24.2115 16.5435 24.3197 16.8617C24.4279 17.1798 24.5987 17.4739 24.8224 17.7271C25.046 17.9803 25.3182 18.1877 25.6233 18.3374L25.6378 18.3282ZM9.31247 10.4259C9.77251 10.649 10.2894 10.7329 10.7979 10.6669C11.3064 10.6009 11.7835 10.388 12.1691 10.0551C12.5546 9.72225 12.8311 9.28433 12.9638 8.79676C13.0964 8.30919 13.0791 7.79386 12.9142 7.31594C12.7492 6.83803 12.4439 6.41899 12.037 6.11181C11.63 5.80464 11.1396 5.62313 10.6278 5.59023C10.1161 5.55734 9.60586 5.67454 9.16176 5.92701C8.71766 6.17948 8.3596 6.55588 8.13287 7.00862C7.82964 7.61586 7.78354 8.31667 8.00468 8.95731C8.22582 9.59795 8.69614 10.1261 9.31247 10.4259ZM10.7798 27.7692C11.2399 27.9924 11.7568 28.0762 12.2653 28.0102C12.7737 27.9442 13.2509 27.7313 13.6364 27.3984C14.0219 27.0656 14.2985 26.6276 14.4311 26.1401C14.5637 25.6525 14.5465 25.1372 14.3815 24.6593C14.2165 24.1813 13.9113 23.7623 13.5043 23.4551C13.0974 23.148 12.607 22.9664 12.0952 22.9335C11.5834 22.9007 11.0732 23.0179 10.6291 23.2703C10.185 23.5228 9.82695 23.8992 9.60022 24.3519C9.29699 24.9592 9.25088 25.66 9.47202 26.3006C9.69317 26.9413 10.1635 27.4694 10.7798 27.7692Z" fill="#F06C45"/>
</svg>
