<svg width="126" height="48" viewBox="0 0 126 48" fill="none" xmlns="http://www.w3.org/2000/svg">
<path d="M14.21 31.274C14.7233 31.2593 15.09 31.142 15.31 30.922C15.53 30.702 15.6547 30.4453 15.684 30.152C15.7133 29.844 15.728 29.316 15.728 28.568V19.064C15.728 18.448 15.75 17.92 15.794 17.48L14.21 17.568V16.6H24.792L24.902 20.45H24.176C24.176 19.2473 23.912 18.426 23.384 17.986C22.8707 17.546 22.1447 17.3407 21.206 17.37L19.314 17.414C18.786 17.4287 18.4047 17.5313 18.17 17.722C17.9353 17.898 17.7887 18.1547 17.73 18.492C17.6713 18.8147 17.642 19.328 17.642 20.032V23.552L21.778 23.574L21.624 21.682H22.592V26.302H21.866C21.866 25.7593 21.8 25.3487 21.668 25.07C21.536 24.7767 21.3307 24.586 21.052 24.498C20.788 24.3953 20.414 24.344 19.93 24.344L19.248 24.366L17.642 24.432V29.47C17.642 30.2327 17.62 30.8047 17.576 31.186L21.778 31.12C22.8047 31.1053 23.5893 30.8487 24.132 30.35C24.6747 29.8367 24.946 28.9567 24.946 27.71H25.694L25.562 32H14.21V31.274ZM28.7755 31.274C29.2889 31.2593 29.6555 31.142 29.8755 30.922C30.0955 30.702 30.2202 30.4453 30.2495 30.152C30.2789 29.844 30.2935 29.316 30.2935 28.568V19.064C30.2935 18.448 30.3155 17.92 30.3595 17.48L28.7755 17.568V16.6C30.8289 16.5707 32.4642 16.556 33.6815 16.556C35.8669 16.556 37.5169 16.9373 38.6315 17.7C39.7609 18.4627 40.3255 19.5847 40.3255 21.066C40.3255 21.9167 40.0982 22.7307 39.6435 23.508C39.2035 24.2853 38.4335 24.9307 37.3335 25.444C36.2482 25.9573 34.8035 26.214 32.9995 26.214C32.6622 26.214 32.3982 26.2067 32.2075 26.192V29.382C32.2075 30.1593 32.1855 30.7387 32.1415 31.12L34.1655 31.01V32H28.7755V31.274ZM33.6375 25.356C34.4735 25.356 35.2362 25.1947 35.9255 24.872C36.6295 24.5347 37.1795 24.058 37.5755 23.442C37.9862 22.8113 38.1915 22.078 38.1915 21.242C38.1915 19.922 37.7882 18.954 36.9815 18.338C36.1749 17.722 35.0602 17.414 33.6375 17.414C33.1389 17.414 32.7869 17.5167 32.5815 17.722C32.3909 17.9273 32.2809 18.1767 32.2515 18.47C32.2222 18.7487 32.2075 19.2693 32.2075 20.032V25.29C32.5742 25.334 33.0509 25.356 33.6375 25.356ZM42.8899 31.274C43.4033 31.2593 43.7699 31.142 43.9899 30.922C44.2099 30.702 44.3346 30.4453 44.3639 30.152C44.3933 29.844 44.4079 29.316 44.4079 28.568V19.064C44.4079 18.448 44.4299 17.92 44.4739 17.48L42.8899 17.568V16.6H47.8399V17.326C47.3266 17.3407 46.9599 17.458 46.7399 17.678C46.5199 17.898 46.3953 18.162 46.3659 18.47C46.3366 18.7633 46.3219 19.284 46.3219 20.032V29.382C46.3219 30.1593 46.2999 30.7387 46.2559 31.12L47.8399 31.032V32H42.8899V31.274ZM65.1024 32.352C63.6357 32.352 62.3377 32.044 61.2084 31.428C60.079 30.7973 59.199 29.9027 58.5684 28.744C57.9377 27.5853 57.6224 26.214 57.6224 24.63C57.6224 23.1927 57.9084 21.836 58.4804 20.56C59.067 19.284 59.9397 18.25 61.0984 17.458C62.257 16.6513 63.6504 16.248 65.2784 16.248C66.0704 16.248 66.8697 16.358 67.6764 16.578C68.4977 16.7833 69.2164 17.0767 69.8324 17.458L69.7444 16.402H70.9544V21.44H70.1624C70.0597 20.0907 69.5684 19.0347 68.6884 18.272C67.823 17.5093 66.7377 17.128 65.4324 17.128C64.391 17.128 63.4377 17.4287 62.5724 18.03C61.7217 18.6313 61.0397 19.4673 60.5264 20.538C60.0277 21.594 59.7784 22.7893 59.7784 24.124C59.7784 25.5027 60.0277 26.7347 60.5264 27.82C61.025 28.9053 61.7217 29.756 62.6164 30.372C63.511 30.988 64.5304 31.296 65.6744 31.296C66.305 31.296 66.9504 31.208 67.6104 31.032C68.285 30.8413 68.8937 30.5627 69.4364 30.196V25.378L67.8964 25.466V24.498H72.8684V25.224C72.1644 25.224 71.7244 25.4953 71.5484 26.038C71.3724 26.566 71.2844 27.1673 71.2844 27.842V31.208H70.6904C70.0744 31.208 69.2824 31.3987 68.3144 31.78C67.8744 31.956 67.3537 32.0953 66.7524 32.198C66.151 32.3007 65.601 32.352 65.1024 32.352ZM75.1727 31.34C75.598 31.34 75.8987 31.2373 76.0747 31.032C76.2654 30.812 76.3754 30.5407 76.4047 30.218C76.4487 29.8807 76.4707 29.36 76.4707 28.656V23.64C76.4707 23.024 76.5 22.5473 76.5587 22.21L74.9967 22.276V21.374H75.6787C76.236 21.374 76.6394 21.33 76.8887 21.242C77.138 21.1393 77.3727 20.9853 77.5927 20.78H78.2307C78.2894 21.352 78.326 22.078 78.3407 22.958C78.7074 22.3567 79.228 21.8213 79.9027 21.352C80.592 20.8827 81.3034 20.648 82.0367 20.648C82.4767 20.648 82.8434 20.7653 83.1367 21C83.43 21.2347 83.5767 21.5793 83.5767 22.034C83.5767 22.2687 83.4814 22.5033 83.2907 22.738C83.1147 22.9727 82.858 23.09 82.5207 23.09C82.198 23.09 81.934 22.9727 81.7287 22.738C81.5234 22.4887 81.4427 22.1953 81.4867 21.858C80.9294 21.8433 80.3647 22.056 79.7927 22.496C79.2354 22.936 78.7587 23.5227 78.3627 24.256L78.3847 29.668C78.3847 30.328 78.3554 30.8267 78.2967 31.164L79.6827 31.098V32H75.1727V31.34ZM90.8759 32.352C89.8639 32.352 88.9325 32.1173 88.0819 31.648C87.2459 31.164 86.5785 30.4967 86.0799 29.646C85.5959 28.7953 85.3539 27.8347 85.3539 26.764C85.3539 25.62 85.5959 24.586 86.0799 23.662C86.5639 22.7233 87.2239 21.99 88.0599 21.462C88.9105 20.9193 89.8492 20.648 90.8759 20.648C91.8879 20.648 92.8192 20.8973 93.6699 21.396C94.5205 21.88 95.1879 22.5473 95.6719 23.398C96.1705 24.2487 96.4199 25.1947 96.4199 26.236C96.4199 27.3507 96.1705 28.3773 95.6719 29.316C95.1879 30.2547 94.5205 30.9953 93.6699 31.538C92.8339 32.0807 91.9025 32.352 90.8759 32.352ZM91.0519 31.472C92.1225 31.472 92.9072 31.032 93.4059 30.152C93.9192 29.272 94.1759 28.1793 94.1759 26.874C94.1759 25.3927 93.8972 24.124 93.3399 23.068C92.7972 22.012 91.9759 21.484 90.8759 21.484C89.7905 21.484 88.9692 21.9313 88.4119 22.826C87.8692 23.7207 87.5979 24.8207 87.5979 26.126C87.5979 27.0647 87.7225 27.9447 87.9719 28.766C88.2359 29.5727 88.6245 30.2253 89.1379 30.724C89.6659 31.2227 90.3039 31.472 91.0519 31.472ZM103.811 32.352C102.564 32.352 101.648 31.9927 101.061 31.274C100.489 30.5553 100.203 29.316 100.203 27.556V23.64C100.203 23.024 100.232 22.5473 100.291 22.21L98.773 22.276V21.374H99.455C100.027 21.374 100.46 21.3227 100.753 21.22C101.046 21.1173 101.296 20.9707 101.501 20.78H102.139V27.49C102.139 28.7807 102.315 29.7267 102.667 30.328C103.034 30.9293 103.635 31.23 104.471 31.23C105.014 31.23 105.542 31.0687 106.055 30.746C106.583 30.4233 107.008 30.02 107.331 29.536V23.882C107.331 23.1927 107.368 22.6353 107.441 22.21L105.857 22.276V21.374H106.539C107.111 21.374 107.544 21.3227 107.837 21.22C108.13 21.1173 108.38 20.9707 108.585 20.78H109.223L109.201 29.096C109.201 29.9467 109.172 30.636 109.113 31.164L110.697 31.076V32H107.551C107.478 31.5453 107.426 31.1053 107.397 30.68C106.913 31.164 106.348 31.5673 105.703 31.89C105.058 32.198 104.427 32.352 103.811 32.352ZM112.978 36.95C113.403 36.95 113.704 36.84 113.88 36.62C114.071 36.4147 114.181 36.1507 114.21 35.828C114.239 35.52 114.261 34.9993 114.276 34.266L114.32 23.64C114.32 23.024 114.349 22.5473 114.408 22.21L112.846 22.298V21.374C113.711 21.374 114.305 21.33 114.628 21.242C114.951 21.1393 115.215 20.9853 115.42 20.78H116.08C116.139 21.4987 116.168 21.8947 116.168 21.968C116.608 21.572 117.136 21.2567 117.752 21.022C118.368 20.7727 118.977 20.648 119.578 20.648C120.443 20.648 121.243 20.8753 121.976 21.33C122.709 21.77 123.296 22.408 123.736 23.244C124.191 24.0653 124.418 25.0187 124.418 26.104C124.418 27.3213 124.161 28.4067 123.648 29.36C123.135 30.2987 122.445 31.032 121.58 31.56C120.729 32.088 119.805 32.352 118.808 32.352C117.796 32.352 116.916 32.11 116.168 31.626V35.278C116.168 35.938 116.139 36.4367 116.08 36.774L117.466 36.708V37.61H112.978V36.95ZM118.764 31.472C119.453 31.472 120.047 31.2593 120.546 30.834C121.059 30.4087 121.455 29.8147 121.734 29.052C122.013 28.2893 122.152 27.424 122.152 26.456C122.152 25.136 121.866 24.0213 121.294 23.112C120.737 22.188 119.901 21.726 118.786 21.726C118.302 21.726 117.833 21.8433 117.378 22.078C116.923 22.3127 116.527 22.606 116.19 22.958C116.205 23.0607 116.212 23.508 116.212 24.3L116.19 30.614C116.938 31.186 117.796 31.472 118.764 31.472Z" fill="white"/>
<path d="M46 1H1V47H46" stroke="#F06C45"/>
</svg>
